<!-- <svg xmlns="http://www.w3.org/2000/svg" fill="none" viewBox="0 0 24 24" stroke-width="1.5" stroke="currentColor" class="w-6 h-6">
  <path stroke-linecap="round" stroke-linejoin="round" d="M16.862 4.487l1.687-1.688a1.875 1.875 0 112.652 2.652L10.582 16.07a4.5 4.5 0 01-1.897 1.13L6 18l.8-2.685a4.5 4.5 0 011.13-1.897l8.932-8.931zm0 0L19.5 7.125M18 14v4.75A2.25 2.25 0 0115.75 21H5.25A2.25 2.25 0 013 18.75V8.25A2.25 2.25 0 015.25 6H10" />
</svg> -->
<svg xmlns="http://www.w3.org/2000/svg" viewBox="0 0 64 64" id="notepad"><rect width="44" height="10" x="5" y="8" fill="#7accbe" rx="2" ry="2"></rect><path fill="#61c3b6" d="M38.52,8a21.19,21.19,0,0,1-5.16,10H7a2,2,0,0,1-2-2V10A2,2,0,0,1,7,8Z"></path><rect width="4" height="10" x="39" y="3" fill="#fd9467" rx="2" ry="2"></rect><rect width="4" height="10" x="12" y="3" fill="#fd9467" rx="2" ry="2"></rect><path fill="#fff" d="M47,18V57a4,4,0,0,1-4,4H11a4,4,0,0,1-4-4V18Z"></path><rect width="40" height="3" x="7" y="18" fill="#e6e6e6"></rect><path fill="#e6e6e6" d="M47,26.18V44.84l-4.16,5L32.37,54.35A1,1,0,0,1,31,53.2l2.66-11.11Z"></path><path fill="#ffa88a" d="M57.71,27.41l-1.93,2.3-7,8.3h0L41,47.33,34.85,50l1.56-6.52L48,29.72l3.24-3.86,1.93-2.3a2,2,0,0,1,2.82-.25l1.53,1.29A2,2,0,0,1,57.71,27.41Z"></path><path fill="#fd9467" d="M49,35.5A17.24,17.24,0,0,1,48.81,38h0L41,47.33,34.85,50l1.56-6.52L48,29.72A16.33,16.33,0,0,1,49,35.5Z"></path><path fill="#61c3b6" d="M57.71,27.41l-1.93,2.3-4.59-3.85,1.93-2.3a2,2,0,0,1,2.82-.25l1.53,1.29A2,2,0,0,1,57.71,27.41Z"></path><polygon fill="#fff" points="41 47.33 34.85 50 36.41 43.48 41 47.33"></polygon><path fill="#4e5b5f" d="M58.11,23.83l-1.53-1.28a3,3,0,0,0-2.19-.69,2.93,2.93,0,0,0-2,1.06l-1.93,2.29h0L48,28.1V18.82A3,3,0,0,0,50,16V10a3,3,0,0,0-3-3H44V5a3,3,0,0,0-6,0V7H17V5a3,3,0,0,0-6,0V7H7a3,3,0,0,0-3,3v6a3,3,0,0,0,2,2.82V57a5,5,0,0,0,5,5H43a5,5,0,0,0,5-5V40.55L58.48,28.06A3,3,0,0,0,58.11,23.83ZM40.88,45.92l-3.07-2.57,13.5-16.09,3.07,2.58ZM37,45.28l2.12,1.78-2.84,1.23ZM40,5a1,1,0,0,1,2,0v6a1,1,0,0,1-2,0ZM13,5a1,1,0,0,1,2,0v6a1,1,0,0,1-2,0ZM6,10A1,1,0,0,1,7,9h4v2a3,3,0,0,0,6,0V9H38v2a3,3,0,0,0,6,0V9h3a1,1,0,0,1,1,1v6a1,1,0,0,1-1,1H7a1,1,0,0,1-1-1ZM46,57a3,3,0,0,1-3,3H11a3,3,0,0,1-3-3V19H46V30.49L35.64,42.83a.89.89,0,0,0-.19.39l0,0-1.56,6.53a1,1,0,0,0,.33,1,1.05,1.05,0,0,0,.65.23,1.14,1.14,0,0,0,.4-.08l6.15-2.67h0a.93.93,0,0,0,.36-.27l4.23-5ZM57,26.77,55.66,28.3,52.6,25.73l1.28-1.53a1,1,0,0,1,.68-.35,1,1,0,0,1,.73.23l1.54,1.28A1,1,0,0,1,57,26.77Z"></path><path fill="#fd9467" d="M14,27H40a1,1,0,0,0,0-2H14a1,1,0,0,0,0,2Z"></path><path fill="#61c3b6" d="M14 35H38a1 1 0 0 0 0-2H14a1 1 0 0 0 0 2zM32 41H14a1 1 0 0 0 0 2H32a1 1 0 0 0 0-2zM30 49H14a1 1 0 0 0 0 2H30a1 1 0 0 0 0-2z"></path></svg>